<?xml version="1.0" encoding="UTF-8" standalone="no"?>
<svg width="800" height="400" viewBox="0 0 800 400" xmlns="http://www.w3.org/2000/svg">
  <defs>
    <linearGradient id="gradient" x1="0%" y1="0%" x2="100%" y2="100%">
      <stop offset="0%" stop-color="#6e48aa" />
      <stop offset="100%" stop-color="#9d50bb" />
    </linearGradient>
  </defs>
  <rect width="800" height="400" fill="#1a1a2e" />
  <rect x="20" y="20" width="760" height="360" rx="10" ry="10" fill="#16213e" stroke="#9d50bb" stroke-width="2" />
  
  <!-- Header -->
  <rect x="40" y="40" width="720" height="60" rx="5" ry="5" fill="#1a1a2e" />
  <text x="60" y="75" font-family="Arial" font-size="24" fill="url(#gradient)">ChainOS Dashboard</text>
  
  <!-- Main chart area -->
  <rect x="40" y="120" width="460" height="240" rx="5" ry="5" fill="#1a1a2e" />
  
  <!-- Chart lines -->
  <polyline points="60,320 100,280 140,300 180,260 220,240 260,220 300,230 340,210 380,190 420,170 460,180" 
            fill="none" stroke="#9d50bb" stroke-width="3" />
  
  <!-- Chart dots -->
  <circle cx="60" cy="320" r="4" fill="#6e48aa" />
  <circle cx="100" cy="280" r="4" fill="#6e48aa" />
  <circle cx="140" cy="300" r="4" fill="#6e48aa" />
  <circle cx="180" cy="260" r="4" fill="#6e48aa" />
  <circle cx="220" cy="240" r="4" fill="#6e48aa" />
  <circle cx="260" cy="220" r="4" fill="#6e48aa" />
  <circle cx="300" cy="230" r="4" fill="#6e48aa" />
  <circle cx="340" cy="210" r="4" fill="#6e48aa" />
  <circle cx="380" cy="190" r="4" fill="#6e48aa" />
  <circle cx="420" cy="170" r="4" fill="#6e48aa" />
  <circle cx="460" cy="180" r="4" fill="#6e48aa" />
  
  <!-- Stats panels -->
  <rect x="520" y="120" width="240" height="70" rx="5" ry="5" fill="#1a1a2e" />
  <text x="540" y="145" font-family="Arial" font-size="16" fill="white">Transactions</text>
  <text x="540" y="175" font-family="Arial" font-size="24" fill="#6e48aa">8,750 TPS</text>
  
  <rect x="520" y="205" width="240" height="70" rx="5" ry="5" fill="#1a1a2e" />
  <text x="540" y="230" font-family="Arial" font-size="16" fill="white">Block Time</text>
  <text x="540" y="260" font-family="Arial" font-size="24" fill="#6e48aa">2.37s</text>
  
  <rect x="520" y="290" width="240" height="70" rx="5" ry="5" fill="#1a1a2e" />
  <text x="540" y="315" font-family="Arial" font-size="16" fill="white">Active Validators</text>
  <text x="540" y="345" font-family="Arial" font-size="24" fill="#6e48aa">100/100</text>
</svg>
