<?xml version="1.0" encoding="UTF-8"?>
<svg width="800px" height="400px" viewBox="0 0 800 400" version="1.1" xmlns="http://www.w3.org/2000/svg">
    <style>
        .grid { stroke: #333; stroke-width: 0.5; }
        .axis { stroke: #666; stroke-width: 2; }
        .text { font-family: Arial, sans-serif; fill: white; }
        .title { font-size: 16px; text-anchor: middle; font-weight: bold; }
        .label { font-size: 12px; text-anchor: middle; }
        .tick { font-size: 10px; }
        .bar-1 { fill: url(#bar-gradient-1); }
        .bar-2 { fill: url(#bar-gradient-2); }
        .bar-3 { fill: url(#bar-gradient-3); }
        .bar-4 { fill: url(#bar-gradient-4); }
        .bar-5 { fill: url(#bar-gradient-5); }
        .bar-6 { fill: url(#bar-gradient-6); }
    </style>
    
    <!-- Background -->
    <rect width="800" height="400" fill="#111111"/>
    
    <!-- Gradients for bars -->
    <defs>
        <linearGradient id="bar-gradient-1" x1="0%" y1="0%" x2="0%" y2="100%">
            <stop offset="0%" style="stop-color:#4a6bff;stop-opacity:1" />
            <stop offset="100%" style="stop-color:#4a6bff;stop-opacity:0.6" />
        </linearGradient>
        <linearGradient id="bar-gradient-2" x1="0%" y1="0%" x2="0%" y2="100%">
            <stop offset="0%" style="stop-color:#6a5acd;stop-opacity:1" />
            <stop offset="100%" style="stop-color:#6a5acd;stop-opacity:0.6" />
        </linearGradient>
        <linearGradient id="bar-gradient-3" x1="0%" y1="0%" x2="0%" y2="100%">
            <stop offset="0%" style="stop-color:#c64aff;stop-opacity:1" />
            <stop offset="100%" style="stop-color:#c64aff;stop-opacity:0.6" />
        </linearGradient>
        <linearGradient id="bar-gradient-4" x1="0%" y1="0%" x2="0%" y2="100%">
            <stop offset="0%" style="stop-color:#ff4a8d;stop-opacity:1" />
            <stop offset="100%" style="stop-color:#ff4a8d;stop-opacity:0.6" />
        </linearGradient>
        <linearGradient id="bar-gradient-5" x1="0%" y1="0%" x2="0%" y2="100%">
            <stop offset="0%" style="stop-color:#4affea;stop-opacity:1" />
            <stop offset="100%" style="stop-color:#4affea;stop-opacity:0.6" />
        </linearGradient>
        <linearGradient id="bar-gradient-6" x1="0%" y1="0%" x2="0%" y2="100%">
            <stop offset="0%" style="stop-color:#4aff71;stop-opacity:1" />
            <stop offset="100%" style="stop-color:#4aff71;stop-opacity:0.6" />
        </linearGradient>
    </defs>
    
    <!-- Title and Labels -->
    <text x="400" y="30" class="text title">Block Time Distribution (Last 30,000 Blocks)</text>
    <text x="400" y="380" class="text label">Block Time (seconds)</text>
    <text x="20" y="200" class="text label" transform="rotate(-90, 20, 200)">Number of Blocks</text>
    
    <!-- X-axis -->
    <line x1="60" y1="320" x2="740" y2="320" class="axis"/>
    <text x="100" y="340" class="text tick">1.8s</text>
    <text x="200" y="340" class="text tick">2.0s</text>
    <text x="300" y="340" class="text tick">2.2s</text>
    <text x="400" y="340" class="text tick">2.4s</text>
    <text x="500" y="340" class="text tick">2.6s</text>
    <text x="600" y="340" class="text tick">2.8s</text>
    <text x="700" y="340" class="text tick">3.0s</text>
    
    <!-- Y-axis -->
    <line x1="60" y1="60" x2="60" y2="320" class="axis"/>
    <text x="45" y="320" class="text tick">0</text>
    <text x="45" y="270" class="text tick">2k</text>
    <text x="45" y="220" class="text tick">4k</text>
    <text x="45" y="170" class="text tick">6k</text>
    <text x="45" y="120" class="text tick">8k</text>
    <text x="45" y="70" class="text tick">10k</text>
    
    <!-- Grid -->
    <line x1="60" y1="270" x2="740" y2="270" class="grid"/>
    <line x1="60" y1="220" x2="740" y2="220" class="grid"/>
    <line x1="60" y1="170" x2="740" y2="170" class="grid"/>
    <line x1="60" y1="120" x2="740" y2="120" class="grid"/>
    <line x1="60" y1="70" x2="740" y2="70" class="grid"/>
    
    <!-- Bars -->
    <rect x="80" y="310" width="60" height="10" rx="2" class="bar-1"/>  <!-- 1.8-1.9s -->
    <rect x="150" y="290" width="60" height="30" rx="2" class="bar-2"/>  <!-- 1.9-2.1s -->
    <rect x="220" y="160" width="60" height="160" rx="2" class="bar-3"/> <!-- 2.1-2.3s -->
    <rect x="290" y="85" width="60" height="235" rx="2" class="bar-4"/>  <!-- 2.3-2.5s (peak) -->
    <rect x="360" y="180" width="60" height="140" rx="2" class="bar-5"/> <!-- 2.5-2.7s -->
    <rect x="430" y="260" width="60" height="60" rx="2" class="bar-6"/>  <!-- 2.7-2.9s -->
    <rect x="500" y="300" width="60" height="20" rx="2" class="bar-1"/>  <!-- 2.9-3.1s -->
    
    <!-- Average indicator -->
    <line x1="310" y1="60" x2="310" y2="320" stroke="#ff4a4a" stroke-width="2" stroke-dasharray="5,5"/>
    <text x="310" y="50" class="text tick" fill="#ff4a4a">Average: 2.37s</text>
    
    <!-- Target indicator -->
    <line x1="250" y1="60" x2="250" y2="320" stroke="#4aff71" stroke-width="2" stroke-dasharray="5,5"/>
    <text x="250" y="40" class="text tick" fill="#4aff71">Target: 2.2s</text>
</svg>
